<svg width="48" height="48" viewBox="0 0 48 48" fill="none" xmlns="http://www.w3.org/2000/svg">
<path d="M1.44678 8.31299H46.1127L23.2765 47.0652L1.44678 8.31299Z" fill="#9ACA3C"/>
<path d="M0 21.4612L11.1979 16.4912L10.8205 19.1963L12.1416 18.3156L11.9528 15.6734L14.7838 13.6603L15.7903 13.5345L17.4888 11.5213L20.823 10.8293L22.8362 9.82275H26.7366L27.6174 11.2068L28.498 10.6406L30.3224 10.5777L32.8388 12.0875V16.4912L33.5936 16.617L33.7824 17.4348L35.9842 17.4978L34.2856 14.6669L45.2948 13.157L48 20.0142L40.1992 19.3221L42.1494 22.6564H34.2856V25.8018L28.3092 31.904L28.0734 38.8556L23.2766 47.0652L17.1271 36.119L16.9856 30.8976L13.3997 23.2226L5.85058 23.1596L6.47972 21.2094L0 21.4612Z" fill="black"/>
<path d="M37.8718 18.3786L36.4248 15.4847L44.4144 15.0444L45.9242 18.4416L38.6896 18.1269L40.2624 21.5871L34.3488 21.5241L34.0342 18.4416L37.8718 18.3786Z" fill="#FFF200"/>
<path d="M4.78125 20.2657L9.43653 18.3784L9.49947 20.5803L12.8337 19.385L14.8467 20.8949L14.4064 22.2787H7.54925L7.92671 20.2027L4.78125 20.2657Z" fill="#FFF200"/>
<path d="M25.1636 20.2027L25.7298 23.3481C25.7298 23.3481 26.4848 23.7257 28.1204 23.0337C29.756 22.3417 30.385 22.1529 30.385 22.1529C30.385 22.1529 30.448 22.5305 29.6932 23.0337C28.9382 23.5369 27.4912 23.7885 27.4912 23.7885C27.4912 23.7885 28.1204 24.2919 29.064 23.9145C30.0076 23.5371 30.3222 23.3483 30.3222 23.3483C30.3222 23.3483 30.3222 24.4807 29.5672 24.6693C28.8124 24.8581 26.925 24.4177 25.9814 24.4807C25.0378 24.5437 24.5974 25.3613 24.5346 25.9905C24.4716 26.6197 24.912 28.4439 24.912 28.4439C24.912 28.4439 23.9054 27.1229 23.9054 26.1793C23.9054 25.2355 24.0942 24.6065 24.0942 24.6065L22.5214 24.4177L21.8294 23.3483L18.6367 23.5213C18.6367 23.5213 18.621 26.0535 19.8163 27.5631C21.0116 29.0729 22.3328 30.1425 22.3328 30.1425L23.2764 44.2971L27.051 38.6981L27.1138 31.4007L24.0312 30.3941C24.0312 30.3941 26.5476 30.6457 27.8058 30.0795C29.064 29.5133 32.2096 26.6825 32.7128 25.7389C33.216 24.7951 32.5868 17.938 32.5868 17.938C32.5868 17.938 30.5108 18.8816 28.4348 19.5107C26.3588 20.1399 25.1636 20.2027 25.1636 20.2027Z" fill="#C4A43F"/>
<path d="M27.9316 12.0876C27.9316 12.0876 28.9382 11.4585 30.1964 11.8359C31.4546 12.2134 31.832 12.4651 31.832 12.4651V16.6171C31.832 16.6171 31.2658 16.9945 30.3222 17.4349C29.3786 17.8753 28.7496 17.8753 28.7496 17.8753C28.7496 17.8753 28.5608 14.9816 28.3092 13.7863C28.0574 12.5909 27.9316 12.0876 27.9316 12.0876Z" fill="#C4A43F"/>
<path d="M23.4023 10.6406H25.7927C25.7927 10.6406 26.7995 11.773 27.0511 13.0941C27.3027 14.4152 27.4285 18.4414 27.4285 18.4414C27.4285 18.4414 26.6107 18.756 25.5411 18.8818C24.4717 19.0076 24.0943 18.9447 24.0943 18.9447C24.0943 18.9447 23.8425 14.6039 23.6539 13.157C23.4651 11.7101 23.4023 10.6406 23.4023 10.6406Z" fill="#C4A43F"/>
<path d="M18.6841 12.3391L20.7602 11.71C20.7602 11.71 22.207 12.6536 22.4586 14.4151C22.7104 16.1766 22.5844 18.8817 22.5844 18.8817L19.6906 19.3849C19.6906 19.3849 19.4389 15.2329 19.1244 14.0376C18.8099 12.8422 18.6841 12.3391 18.6841 12.3391Z" fill="#C4A43F"/>
<path d="M14.2803 15.7363C14.2803 15.7363 14.7207 14.8556 15.6014 14.7926C16.4821 14.7297 16.9854 14.9184 16.9854 14.9184L18.1178 19.3221C18.1178 19.3221 17.992 19.5738 17.1742 19.8883C16.3563 20.2027 15.8531 20.1399 15.8531 20.1399C15.8531 20.1399 15.0352 18.1269 14.7836 17.309C14.5321 16.4912 14.2803 15.7363 14.2803 15.7363Z" fill="#C4A43F"/>
<path d="M16.2305 14.1636L17.6773 12.6538C17.6773 12.6538 18.4323 13.3458 18.558 14.1636C18.6838 14.9815 18.621 18.1899 18.621 18.1899C18.621 18.1899 17.929 14.604 17.4886 14.4153C17.0482 14.2266 16.2305 14.1636 16.2305 14.1636Z" fill="#796621"/>
<path d="M13.7142 15.5474L12.8335 16.3652L12.8964 18.1896L14.8466 19.6365L13.9029 17.1201L13.7142 15.5474Z" fill="#796621"/>
<path d="M22.7102 10.8926L21.6406 11.3329L22.836 13.2202L22.7102 10.8926Z" fill="#796621"/>
<path d="M22.27 20.6432L24.283 20.4546L24.9122 23.663H23.0248L22.27 20.6432Z" fill="#796621"/>
<path d="M21.5779 19.8882L19.5019 20.2656L19.0615 22.4674L21.3263 22.2786L21.2005 20.2656L21.5779 19.8882Z" fill="#796621"/>
<path d="M18.2435 20.3286C18.2435 20.3286 17.8031 20.706 17.0482 20.769C16.2933 20.8318 15.9788 20.8318 15.9788 20.8318L15.79 22.3416L17.8031 22.4674L18.2435 20.3286Z" fill="#796621"/>
<path d="M15.0981 23.4743L17.5516 23.3799L17.4258 24.4179L16.7338 24.6067L17.6146 24.7953C17.6146 24.7953 17.6932 25.1415 17.8741 25.6289C17.9019 25.7041 17.4101 26.0221 17.4101 26.0221C17.4101 26.0221 18.0176 25.9913 18.0461 26.0573C18.2193 26.4563 18.45 26.9007 18.7468 27.3117C19.5647 28.4441 21.326 30.3943 21.326 30.3943L20.1938 30.6459L21.389 31.0235L22.0182 42.4729L18.2437 36.1821L18.1178 31.4009L18.9985 30.8977L17.9291 30.5201L15.0981 23.4743Z" fill="#796621"/>
<path d="M4.40926 2C5.1903 2 6.46366 2.33604 6.46366 3.16388V3.61702H5.94814V3.31242C5.94814 2.79682 5.05762 2.5156 4.42482 2.5156C3.2062 2.5156 2.26888 3.4686 2.26888 4.79658C2.26888 6.1089 3.19846 7.16352 4.44832 7.16352C5.58088 7.16352 6.24492 6.3901 6.24492 6.3901L6.55746 6.78852C6.55746 6.78852 5.7997 7.67904 4.44058 7.67904C2.83138 7.67904 1.69873 6.39794 1.69873 4.79658C1.69864 3.21078 2.86252 2 4.40926 2Z" fill="#9ACA3C" stroke="#9ACA3C" stroke-width="0.236374"/>
<path d="M12.229 7.10101H12.3305C12.4711 7.10101 12.557 7.07741 12.6117 6.92907L14.4084 2.09375H14.9943L16.791 6.92907C16.8457 7.07741 16.9238 7.10101 17.0723 7.10101H17.166V7.58527H16.916C16.5254 7.58527 16.4082 7.50715 16.2676 7.13223L15.7912 5.83557H13.6117L13.1274 7.13223C12.9868 7.50725 12.8774 7.58527 12.4868 7.58527H12.229V7.10101ZM15.6426 5.35895L14.9161 3.39825C14.8224 3.14043 14.7052 2.68739 14.7052 2.68739H14.6897C14.6897 2.68739 14.5725 3.14043 14.4787 3.39825L13.7601 5.35895H15.6426Z" fill="#9ACA3C" stroke="#9ACA3C" stroke-width="0.236374"/>
<path d="M23.4158 2.74985C23.4158 2.63265 23.3534 2.57811 23.244 2.57811H22.9082V2.09375H23.4862C23.8222 2.09375 23.9626 2.23435 23.9626 2.57019V6.92907C23.9626 7.04627 24.0252 7.10099 24.1346 7.10099H25.9546C26.064 7.10099 26.1264 7.04627 26.1264 6.92907V6.56189H26.642V7.10863C26.642 7.44457 26.5014 7.58517 26.1656 7.58517H23.8924C23.5564 7.58517 23.4158 7.44457 23.4158 7.10863V2.74985Z" fill="#9ACA3C" stroke="#9ACA3C" stroke-width="0.236374"/>
<path d="M33.4464 5.19483L31.9778 2.78119C31.8764 2.61709 31.7748 2.57811 31.6108 2.57811H31.4858V2.09375H31.6966C32.0716 2.09375 32.2122 2.14847 32.4464 2.53121L33.3762 4.08567C33.548 4.37471 33.7122 4.70291 33.7122 4.70291H33.7278C33.7278 4.70291 33.8918 4.37471 34.0636 4.08567L34.9932 2.53121C35.2276 2.14847 35.3682 2.09375 35.7432 2.09375H35.954V2.57811H35.829C35.6728 2.57811 35.5636 2.61719 35.4698 2.78119L33.9934 5.19483V7.58517H33.4464V5.19483Z" fill="#9ACA3C" stroke="#9ACA3C" stroke-width="0.236374"/>
<path d="M43.2119 4.71839L42.0243 2.78119C41.9151 2.60143 41.7901 2.57811 41.6337 2.57811H41.4699V2.09375H41.7587C42.1415 2.09375 42.2979 2.16405 42.5165 2.53121L43.2195 3.71077C43.3835 3.99197 43.5711 4.33565 43.5711 4.33565H43.5865C43.5865 4.33565 43.7507 3.99197 43.9227 3.71077L44.6255 2.53121C44.8443 2.16405 45.0007 2.09375 45.3833 2.09375H45.6725V2.57811H45.5085C45.3523 2.57811 45.2273 2.60151 45.1179 2.78119L43.9227 4.71839L45.6801 7.58517H45.0553L43.9147 5.69477C43.7431 5.40583 43.5633 5.09329 43.5633 5.09329H43.5477C43.5477 5.09329 43.3915 5.42141 43.2195 5.70261L42.0869 7.58517H41.4619L43.2119 4.71839Z" fill="#9ACA3C" stroke="#9ACA3C" stroke-width="0.236374"/>
</svg>
