<svg xmlns="http://www.w3.org/2000/svg" width="120.001" height="120.001" viewBox="0 0 120.001 120.001">
  <g id="Group_1" data-name="Group 1" transform="translate(-478 -142)">
    <path id="Subtraction_2" data-name="Subtraction 2" d="M-1088,473a59.624,59.624,0,0,1-23.355-4.715,60,60,0,0,1-10.192-5.532,60.432,60.432,0,0,1-8.88-7.327,60.435,60.435,0,0,1-7.327-8.88,60.015,60.015,0,0,1-5.532-10.192A59.626,59.626,0,0,1-1148,413a59.626,59.626,0,0,1,4.715-23.355,60.018,60.018,0,0,1,5.532-10.192,60.435,60.435,0,0,1,7.327-8.88,60.435,60.435,0,0,1,8.88-7.327,60,60,0,0,1,10.192-5.532A59.624,59.624,0,0,1-1088,353a59.624,59.624,0,0,1,23.355,4.715,60.012,60.012,0,0,1,10.192,5.532,60.439,60.439,0,0,1,8.88,7.327,60.439,60.439,0,0,1,7.327,8.88,60,60,0,0,1,5.532,10.192A59.626,59.626,0,0,1-1028,413a59.626,59.626,0,0,1-4.715,23.355,60,60,0,0,1-5.532,10.192,60.443,60.443,0,0,1-7.327,8.88,60.443,60.443,0,0,1-8.88,7.327,60.014,60.014,0,0,1-10.192,5.532A59.624,59.624,0,0,1-1088,473Zm-29.41-45.652a5.093,5.093,0,0,0-3.683,1.4,5.572,5.572,0,0,0-1.5,4.071,5.571,5.571,0,0,0,1.5,4.064,5.085,5.085,0,0,0,3.683,1.41,5.092,5.092,0,0,0,3.676-1.4,5.563,5.563,0,0,0,1.506-4.071,5.562,5.562,0,0,0-1.506-4.071A5.092,5.092,0,0,0-1117.41,427.348Zm-11.3,0a5.028,5.028,0,0,0-3.647,1.4,5.589,5.589,0,0,0-1.493,4.071,5.616,5.616,0,0,0,1.47,4.066,5.028,5.028,0,0,0,3.67,1.408,4.541,4.541,0,0,0,4.848-3.975l-2.934-.021a1.7,1.7,0,0,1-1.852,1.478c-1.436,0-2.227-1.05-2.227-2.956,0-1.878.819-2.955,2.247-2.955a1.683,1.683,0,0,1,1.832,1.624h2.934C-1124.082,428.935-1125.94,427.348-1128.71,427.348Zm81.014,7.284h1l1.873,3.517h3.143l-2.164-3.975a3.161,3.161,0,0,0,1.81-3.059,3.454,3.454,0,0,0-1.089-2.661,4.2,4.2,0,0,0-2.865-.96h-4.6v10.655h2.893v-3.516Zm-12.007-7.138v10.655h7.658v-2.331h-4.766v-1.832h4.39v-2.33h-4.39v-1.832h4.786v-2.331Zm-10.343,0v2.331h3.2v8.324h2.85v-8.324h3.2v-2.331Zm-6.6,7.138h1l1.873,3.517h3.142l-2.164-3.975a3.161,3.161,0,0,0,1.81-3.059,3.454,3.454,0,0,0-1.089-2.661,4.2,4.2,0,0,0-2.865-.96h-4.6v10.655h2.893v-3.516Zm-12.008-7.138v10.655h7.658v-2.331h-4.766v-1.832h4.391v-2.33h-4.391v-1.832h4.786v-2.331Zm-12.007,0h0l3.516,10.655h3.955l3.516-10.655h-3.267l-2.185,7.512h-.083l-2.185-7.512Zm-7.346,5.057h.062l3.85,5.6h2.414V427.494h-2.893v5.577h-.084l-3.787-5.577h-2.455v10.655H-1108v-5.6Zm43.67-19.787a8.859,8.859,0,0,0,3.335,6.706,13.39,13.39,0,0,0,8.362,2.456,13.264,13.264,0,0,0,8.541-2.594,8.235,8.235,0,0,0,3.033-6.568c0-4.367-3.026-7.326-8.994-8.8l-3.054-.794a12.847,12.847,0,0,1-3.762-1.494,3.793,3.793,0,0,1-1.918-3.269,4.094,4.094,0,0,1,1.7-3.31,7.525,7.525,0,0,1,4.581-1.317c3.666,0,6.146,1.749,6.474,4.566h4.55a8.128,8.128,0,0,0-3.128-6.2,12.3,12.3,0,0,0-7.79-2.443,12.734,12.734,0,0,0-7.9,2.468,8.424,8.424,0,0,0-2.34,2.834,8.124,8.124,0,0,0-.849,3.677,7.012,7.012,0,0,0,2.186,5.253,13.657,13.657,0,0,0,5.953,3.008l3.7,1.008a14.094,14.094,0,0,1,4.216,1.672,3.57,3.57,0,0,1,1.708,3.092,4.411,4.411,0,0,1-1.96,3.68,8.583,8.583,0,0,1-4.972,1.389,8.5,8.5,0,0,1-4.726-1.235,4.875,4.875,0,0,1-2.207-3.789h-4.734Zm-70.6,0a8.856,8.856,0,0,0,3.334,6.706,13.39,13.39,0,0,0,8.362,2.456,13.265,13.265,0,0,0,8.542-2.594,8.235,8.235,0,0,0,3.033-6.568c0-4.367-3.026-7.326-8.994-8.8l-3.055-.794a12.848,12.848,0,0,1-3.762-1.494,3.793,3.793,0,0,1-1.918-3.269,4.094,4.094,0,0,1,1.695-3.31,7.523,7.523,0,0,1,4.581-1.317c3.665,0,6.146,1.749,6.474,4.566h4.55a8.13,8.13,0,0,0-3.129-6.2,12.3,12.3,0,0,0-7.789-2.443,12.737,12.737,0,0,0-7.9,2.468,8.424,8.424,0,0,0-2.34,2.834,8.123,8.123,0,0,0-.849,3.677,7.013,7.013,0,0,0,2.185,5.253,13.657,13.657,0,0,0,5.953,3.008l3.7,1.008a14.089,14.089,0,0,1,4.217,1.672,3.57,3.57,0,0,1,1.708,3.092,4.411,4.411,0,0,1-1.96,3.68,8.583,8.583,0,0,1-4.973,1.389,8.5,8.5,0,0,1-4.726-1.235,4.874,4.874,0,0,1-2.206-3.789h-4.734Zm46.61-22.63V394.2h9.742v27.211h4.7V394.2h9.757v-4.062Zm-15.876,23h12.216l2.856,8.276h5.008l-11.255-31.272h-5.451l-11.254,31.272h5.008l2.871-8.276Zm-13.206,22.647a1.929,1.929,0,0,1-1.641-.76,3.651,3.651,0,0,1-.565-2.2,3.65,3.65,0,0,1,.565-2.2,1.929,1.929,0,0,1,1.641-.759,1.929,1.929,0,0,1,1.642.759,3.651,3.651,0,0,1,.564,2.2,3.653,3.653,0,0,1-.564,2.2A1.929,1.929,0,0,1-1117.41,435.776Zm70.734-3.392h-1.02V429.8h1.02c1.077,0,1.624.441,1.624,1.31S-1045.584,432.384-1046.677,432.384Zm-28.947,0h-1.02V429.8h1.02c1.077,0,1.624.441,1.624,1.31S-1074.531,432.384-1075.623,432.384Zm-17.74-23.224h-9.467l4.612-13.346h.244l4.611,13.345Z" transform="translate(1626 -211)" fill="#fff"/>
  </g>
</svg>
